<?xml version="1.0" encoding="UTF-8"?>
<svg width="30px" height="30px" viewBox="0 0 30 30" version="1.1" xmlns="http://www.w3.org/2000/svg" xmlns:xlink="http://www.w3.org/1999/xlink">
    <title>路径 12备份 3</title>
    <defs>
        <linearGradient x1="50%" y1="0%" x2="50%" y2="100%" id="linearGradient-1">
            <stop stop-color="#00CFFF" offset="0%"></stop>
            <stop stop-color="#0085FF" offset="100%"></stop>
        </linearGradient>
    </defs>
    <g id="页面-1" stroke="none" stroke-width="1" fill="none" fill-rule="evenodd">
        <g id="1应用门户" transform="translate(-24.000000, -15.000000)" fill="url(#linearGradient-1)">
            <g id="路径-12备份-3" transform="translate(24.000000, 15.000000)">
                <polygon id="路径-12备份-2" points="14.5346306 0 15.7950844 0.0116349572 28.1278399 7.10735188 28.7717302 8.22067676 28.7717302 12.9007897 26.2028347 12.9007897 26.2027045 8.96332087 15.1407191 2.59888211 4.56875054 8.42449503 4.56875054 21.0833701 15.1668897 27.397876 24.973488 21.7742425 22.093435 20.0017046 15.8447778 23.9834313 14.4799792 23.9932791 8.3548265 20.2133507 8.39512213 18.0033566 19.5070388 11.6932541 15.1601464 9.15630915 7.80993994 13.5215567 6.4981988 11.3128106 14.4986564 6.56145907 15.8019532 6.55648761 22.7290094 10.5991976 22.7158352 12.8254711 11.5494031 19.1661713 15.1436091 21.3839309 21.3913322 17.4029177 22.7548373 17.3922727 28.1605367 20.7193915 28.1262644 22.9274836 15.7935089 30 14.4970727 29.9892012 2.62699353 22.9166848 2 21.8132538 2 7.66583215 2.66455144 6.54087232"></polygon>
            </g>
        </g>
    </g>
</svg>